name rise49.8558peak67.6521fall70.3087.mot
datacolumns 19
datarows 18
range 8.17163300000000 8.19996600000000
endheader
time	ground_force1_vx	ground_force1_vy	ground_force1_vz	ground_force1_px	ground_force1_py	ground_force1_pz	ground_force2_vx	ground_force2_vy	ground_force2_vz	ground_force2_px	ground_force2_py	ground_force2_pz	ground_torque1_x	ground_torque1_y	ground_torque1_z	ground_torque2_x	ground_torque2_y	ground_torque2_z	
8.17163300000000	54.29178900000000	693.63256600000000	46.43172900000000	0.38099600000000	0.00000000000000	0.10095100000000	-0.31834200000000	7.07535200000000	1.00578100000000	0.00000000000000	0.00000000000000	0.00000000000000	0.00000000000000	23.15350500000000	0.00000000000000	0.00000000000000	-0.02078400000000	0.00000000000000	
8.17330100000000	53.76062100000000	696.57571099999996	46.63698400000000	0.37957700000000	0.00000000000000	0.10098300000000	-0.02647200000000	3.66860800000000	0.60112800000000	0.00000000000000	0.00000000000000	0.00000000000000	0.00000000000000	23.25199700000000	0.00000000000000	0.00000000000000	0.00909800000000	0.00000000000000	
8.17497200000000	53.23999900000000	699.51977299999999	46.85354800000000	0.37819700000000	0.00000000000000	0.10101600000000	0.00000000000000	0.00000000000000	0.00000000000000	0.00000000000000	0.00000000000000	0.00000000000000	0.00000000000000	23.35901800000000	0.00000000000000	0.00000000000000	0.00000000000000	0.00000000000000	
8.17663200000000	52.72998700000000	702.46190000000001	47.08071300000000	0.37685700000000	0.00000000000000	0.10104800000000	0.00000000000000	0.00000000000000	0.00000000000000	0.00000000000000	0.00000000000000	0.00000000000000	0.00000000000000	23.47408800000000	0.00000000000000	0.00000000000000	0.00000000000000	0.00000000000000	
8.17830400000000	52.23058600000000	705.39904700000000	47.31769100000000	0.37555700000000	0.00000000000000	0.10108000000000	0.00000000000000	0.00000000000000	0.00000000000000	0.00000000000000	0.00000000000000	0.00000000000000	0.00000000000000	23.59667600000000	0.00000000000000	0.00000000000000	0.00000000000000	0.00000000000000	
8.17997000000000	51.74173000000000	708.32799499999999	47.56361800000000	0.37429800000000	0.00000000000000	0.10111200000000	0.00000000000000	0.00000000000000	0.00000000000000	0.00000000000000	0.00000000000000	0.00000000000000	0.00000000000000	23.72620200000000	0.00000000000000	0.00000000000000	0.00000000000000	0.00000000000000	
8.18164000000000	51.26329200000000	711.24536300000000	47.81756100000000	0.37307900000000	0.00000000000000	0.10114400000000	0.00000000000000	0.00000000000000	0.00000000000000	0.00000000000000	0.00000000000000	0.00000000000000	0.00000000000000	23.86204400000000	0.00000000000000	0.00000000000000	0.00000000000000	0.00000000000000	
8.18330300000000	50.79508600000000	714.14762700000006	48.07853000000000	0.37190100000000	0.00000000000000	0.10117500000000	0.00000000000000	0.00000000000000	0.00000000000000	0.00000000000000	0.00000000000000	0.00000000000000	0.00000000000000	24.00353900000000	0.00000000000000	0.00000000000000	0.00000000000000	0.00000000000000	
8.18497000000000	50.33687300000000	717.03113399999995	48.34547900000000	0.37076400000000	0.00000000000000	0.10120600000000	0.00000000000000	0.00000000000000	0.00000000000000	0.00000000000000	0.00000000000000	0.00000000000000	0.00000000000000	24.14999400000000	0.00000000000000	0.00000000000000	0.00000000000000	0.00000000000000	
8.18664000000000	49.88836200000000	719.89212399999997	48.61731900000000	0.36966700000000	0.00000000000000	0.10123600000000	0.00000000000000	0.00000000000000	0.00000000000000	0.00000000000000	0.00000000000000	0.00000000000000	0.00000000000000	24.30068500000000	0.00000000000000	0.00000000000000	0.00000000000000	0.00000000000000	
8.18830000000000	49.44921700000000	722.72674300000006	48.89292400000000	0.36861000000000	0.00000000000000	0.10126600000000	0.00000000000000	0.00000000000000	0.00000000000000	0.00000000000000	0.00000000000000	0.00000000000000	0.00000000000000	24.45486700000000	0.00000000000000	0.00000000000000	0.00000000000000	0.00000000000000	
8.18996500000000	49.01905900000000	725.53106600000001	49.17113600000000	0.36759200000000	0.00000000000000	0.10129600000000	0.00000000000000	0.00000000000000	0.00000000000000	0.00000000000000	0.00000000000000	0.00000000000000	0.00000000000000	24.61177500000000	0.00000000000000	0.00000000000000	0.00000000000000	0.00000000000000	
8.19163900000000	48.59746800000000	728.30110900000000	49.45078000000000	0.36661300000000	0.00000000000000	0.10132400000000	0.00000000000000	0.00000000000000	0.00000000000000	0.00000000000000	0.00000000000000	0.00000000000000	0.00000000000000	24.77063000000000	0.00000000000000	0.00000000000000	0.00000000000000	0.00000000000000	
8.19330000000000	48.18399200000000	731.03285400000004	49.73066400000000	0.36567200000000	0.00000000000000	0.10135300000000	0.00000000000000	0.00000000000000	0.00000000000000	0.00000000000000	0.00000000000000	0.00000000000000	0.00000000000000	24.93064700000000	0.00000000000000	0.00000000000000	0.00000000000000	0.00000000000000	
8.19497200000000	47.77814600000000	733.72226200000000	50.00959100000000	0.36476800000000	0.00000000000000	0.10138000000000	0.00000000000000	0.00000000000000	0.00000000000000	0.00000000000000	0.00000000000000	0.00000000000000	0.00000000000000	25.09103600000000	0.00000000000000	0.00000000000000	0.00000000000000	0.00000000000000	
8.19663700000000	47.37942000000000	736.36529399999995	50.28636700000000	0.36389900000000	0.00000000000000	0.10140700000000	0.00000000000000	0.00000000000000	0.00000000000000	0.00000000000000	0.00000000000000	0.00000000000000	0.00000000000000	25.25100700000000	0.00000000000000	0.00000000000000	0.00000000000000	0.00000000000000	
8.19829900000000	46.98727900000000	738.95792900000004	50.55980600000000	0.36306500000000	0.00000000000000	0.10143300000000	0.00000000000000	0.00000000000000	0.00000000000000	0.00000000000000	0.00000000000000	0.00000000000000	0.00000000000000	25.40977500000000	0.00000000000000	0.00000000000000	0.00000000000000	0.00000000000000	
8.19996600000000	46.60117200000000	741.49618099999998	50.82873700000000	0.36226500000000	0.00000000000000	0.10145800000000	0.00000000000000	0.00000000000000	0.00000000000000	0.00000000000000	0.00000000000000	0.00000000000000	0.00000000000000	25.56656600000000	0.00000000000000	0.00000000000000	0.00000000000000	0.00000000000000	
